<svg width="50" height="49" viewBox="0 0 50 49" fill="none" xmlns="http://www.w3.org/2000/svg">
<path d="M22.5221 1.00376C21.9361 0.361053 21.1414 0 20.3129 0C19.4843 0 18.6896 0.361053 18.1037 1.00376L0.458188 20.36C0.164815 20.6818 -6.18236e-09 21.1184 0 21.5736C6.18237e-09 22.0288 0.164815 22.4653 0.458188 22.7872C0.75156 23.1091 1.14946 23.2899 1.56435 23.2899C1.97924 23.2899 2.37714 23.1091 2.67051 22.7872L3.12673 22.2832V40.4292C3.12673 41.7931 3.62055 43.1011 4.49956 44.0655C5.37856 45.0299 6.57075 45.5717 7.81386 45.5717H9.53247C9.42826 45.0075 9.37592 44.4332 9.37623 43.8575V29.8529C8.62983 29.5631 7.96249 29.0706 7.4365 28.4213C6.91051 27.7721 6.543 26.9872 6.36827 26.1399C6.19354 25.2927 6.21729 24.4106 6.43729 23.5762C6.65729 22.7417 7.06637 21.982 7.62637 21.3679L24.3532 3.01275L22.5221 1.00376Z" fill="#063956"/>
<path d="M27.4782 4.43211C28.0642 3.7894 28.8588 3.42834 29.6874 3.42834C30.516 3.42834 31.3106 3.7894 31.8966 4.43211L37.4993 10.5791V6.14626C37.4993 5.69164 37.6639 5.25563 37.9569 4.93417C38.2499 4.6127 38.6473 4.43211 39.0616 4.43211H42.1864C42.6008 4.43211 42.9982 4.6127 43.2912 4.93417C43.5842 5.25563 43.7488 5.69164 43.7488 6.14626V17.4357L49.5421 23.7883C49.8354 24.1102 50.0003 24.5467 50.0003 25.0019C50.0003 25.4571 49.8354 25.8937 49.5421 26.2155C49.2487 26.5374 48.8508 26.7182 48.4359 26.7182C48.021 26.7182 47.6231 26.5374 47.3297 26.2155L46.8735 25.7116V43.8576C46.8735 45.2215 46.3797 46.5295 45.5007 47.4939C44.6217 48.4582 43.4295 49 42.1864 49H17.1884C15.9453 49 14.7531 48.4582 13.8741 47.4939C12.9951 46.5295 12.5012 45.2215 12.5012 43.8576V25.7116L12.045 26.2155C11.8998 26.3749 11.7273 26.5013 11.5375 26.5876C11.3477 26.6738 11.1443 26.7182 10.9389 26.7182C10.7334 26.7182 10.53 26.6738 10.3402 26.5876C10.1504 26.5013 9.97796 26.3749 9.8327 26.2155C9.68744 26.0562 9.57221 25.867 9.49359 25.6587C9.41497 25.4505 9.37451 25.2273 9.37451 25.0019C9.37451 24.7765 9.41497 24.5533 9.49359 24.3451C9.57221 24.1369 9.68744 23.9477 9.8327 23.7883L27.4782 4.43211Z" fill="#063956"/>
</svg>
