<svg width="50" height="50" viewBox="0 0 50 50" fill="none" xmlns="http://www.w3.org/2000/svg">
<rect width="50" height="50" fill="#063956"/>
<path d="M39.7294 10.2708C35.8752 6.24996 30.5419 4.08329 25.0002 4.16662C19.4585 4.08329 14.146 6.24996 10.2919 10.2708C6.2502 14.125 4.08353 19.4583 4.16687 25C4.08353 30.5416 6.2502 35.8541 10.271 39.7083C14.1252 43.75 19.4585 45.9166 25.0002 45.8333C30.5419 45.9166 35.8544 43.75 39.7085 39.7291C43.7502 35.875 45.9169 30.5416 45.8335 25C45.9169 19.4583 43.7502 14.125 39.7294 10.2708ZM35.4169 25V37.5H28.1252V27.0833H21.8752V37.5H14.5835V25H10.4169L25.0002 10.4166L40.6252 25H35.4169Z" fill="white"/>
</svg>
