<svg width="35" height="35" viewBox="0 0 35 35" fill="none" xmlns="http://www.w3.org/2000/svg">
<path d="M28.8332 2.91667C29.5847 2.91667 30.3054 3.22396 30.8367 3.77094C31.3681 4.31792 31.6666 5.05979 31.6666 5.83333V23.3333C31.6666 24.1069 31.3681 24.8487 30.8367 25.3957C30.3054 25.9427 29.5847 26.25 28.8332 26.25H8.99992L3.33325 32.0833V5.83333C3.33325 5.05979 3.63176 4.31792 4.16312 3.77094C4.69447 3.22396 5.41514 2.91667 6.16658 2.91667H28.8332ZM6.16658 5.83333V25.0396L7.82408 23.3333H28.8332V5.83333H6.16658ZM8.99992 10.2083H25.9999V13.125H8.99992V10.2083ZM8.99992 16.0417H21.7499V18.9583H8.99992V16.0417Z" fill="#22577A"/>
</svg>
