<svg width="50" height="50" viewBox="0 0 50 50" fill="none" xmlns="http://www.w3.org/2000/svg">
<path d="M8.33317 41.6666C7.18734 41.6666 6.20678 41.259 5.3915 40.4437C4.57484 39.6271 4.1665 38.6458 4.1665 37.5V12.5C4.1665 11.3541 4.57484 10.3736 5.3915 9.55831C6.20678 8.74165 7.18734 8.33331 8.33317 8.33331H41.6665C42.8123 8.33331 43.7936 8.74165 44.6103 9.55831C45.4255 10.3736 45.8332 11.3541 45.8332 12.5V37.5C45.8332 38.6458 45.4255 39.6271 44.6103 40.4437C43.7936 41.259 42.8123 41.6666 41.6665 41.6666H8.33317ZM24.9998 27.0833L41.6665 16.6666V12.5L24.9998 22.9166L8.33317 12.5V16.6666L24.9998 27.0833Z" fill="#063956"/>
</svg>
