<svg width="50" height="51" viewBox="0 0 50 51" fill="none" xmlns="http://www.w3.org/2000/svg">
<path d="M19.2708 46.3334L18.4375 39.6667C17.9861 39.4931 17.5611 39.2847 17.1625 39.0417C16.7625 38.7986 16.3715 38.5382 15.9896 38.2604L9.79167 40.8646L4.0625 30.9688L9.42708 26.9063C9.39236 26.6632 9.375 26.4285 9.375 26.2021V24.7959C9.375 24.5709 9.39236 24.3368 9.42708 24.0938L4.0625 20.0313L9.79167 10.1354L15.9896 12.7396C16.3715 12.4618 16.7708 12.2014 17.1875 11.9584C17.6042 11.7153 18.0208 11.507 18.4375 11.3334L19.2708 4.66669H30.7292L31.5625 11.3334C32.0139 11.507 32.4396 11.7153 32.8396 11.9584C33.2382 12.2014 33.6285 12.4618 34.0104 12.7396L40.2083 10.1354L45.9375 20.0313L40.5729 24.0938C40.6076 24.3368 40.625 24.5709 40.625 24.7959V26.2021C40.625 26.4285 40.5903 26.6632 40.5208 26.9063L45.8854 30.9688L40.1562 40.8646L34.0104 38.2604C33.6285 38.5382 33.2292 38.7986 32.8125 39.0417C32.3958 39.2847 31.9792 39.4931 31.5625 39.6667L30.7292 46.3334H19.2708ZM25.1042 32.7917C27.1181 32.7917 28.8368 32.0799 30.2604 30.6563C31.684 29.2327 32.3958 27.5139 32.3958 25.5C32.3958 23.4861 31.684 21.7674 30.2604 20.3438C28.8368 18.9202 27.1181 18.2084 25.1042 18.2084C23.0556 18.2084 21.3278 18.9202 19.9208 20.3438C18.5153 21.7674 17.8125 23.4861 17.8125 25.5C17.8125 27.5139 18.5153 29.2327 19.9208 30.6563C21.3278 32.0799 23.0556 32.7917 25.1042 32.7917Z" fill="#063956"/>
</svg>
