<svg width="35" height="34" viewBox="0 0 35 34" fill="none" xmlns="http://www.w3.org/2000/svg">
<path d="M13.8167 23.375L17.5001 19.6917L21.1834 23.375L23.1667 21.3917L19.4834 17.7083L23.1667 14.025L21.1834 12.0417L17.5001 15.725L13.8167 12.0417L11.8334 14.025L15.5167 17.7083L11.8334 21.3917L13.8167 23.375ZM10.4167 29.75C9.63758 29.75 8.9708 29.4728 8.41641 28.9184C7.86108 28.3631 7.58341 27.6958 7.58341 26.9167V8.5H6.16675V5.66667H13.2501V4.25H21.7501V5.66667H28.8334V8.5H27.4167V26.9167C27.4167 27.6958 27.1396 28.3631 26.5852 28.9184C26.0298 29.4728 25.3626 29.75 24.5834 29.75H10.4167Z" fill="#22577A"/>
</svg>
